<svg xmlns="http://www.w3.org/2000/svg" viewBox="0 0 32 32">
  <defs>
    <linearGradient id="sol-gradient" x1="0%" y1="0%" x2="100%" y2="100%">
      <stop offset="0%" style="stop-color:#00FFA3"/>
      <stop offset="100%" style="stop-color:#DC1FFF"/>
    </linearGradient>
  </defs>
  <circle cx="16" cy="16" r="16" fill="url(#sol-gradient)"/>
  <path fill="#FFF" d="M9.925 18.466a.59.59 0 0 1 .417-.173h13.27a.295.295 0 0 1 .208.503l-2.677 2.682a.59.59 0 0 1-.417.172H7.456a.295.295 0 0 1-.209-.503l2.678-2.681zm0-8.116a.59.59 0 0 1 .417-.173h13.27a.295.295 0 0 1 .208.504l-2.677 2.68a.59.59 0 0 1-.417.173H7.456a.295.295 0 0 1-.209-.503l2.678-2.681zm12.863 4.006a.59.59 0 0 0-.417-.173H9.1a.295.295 0 0 0-.208.503l2.677 2.681a.59.59 0 0 0 .417.173h13.27a.295.295 0 0 0 .209-.503l-2.677-2.681z"/>
</svg>
