<svg xmlns="http://www.w3.org/2000/svg" viewBox="0 0 32 32" width="32" height="32">
  <defs>
    <linearGradient id="zcash-grad" x1="0%" y1="0%" x2="100%" y2="100%">
      <stop offset="0%" stop-color="#F4B728"/>
      <stop offset="100%" stop-color="#FDCE58"/>
    </linearGradient>
  </defs>
  <rect width="32" height="32" rx="8" fill="url(#zcash-grad)"/>
  <path fill="#231F20" d="M16 5c6.075 0 11 4.925 11 11s-4.925 11-11 11S5 22.075 5 16 9.925 5 16 5zm0 2c-4.97 0-9 4.03-9 9s4.03 9 9 9 9-4.03 9-9-4.03-9-9-9z"/>
  <path fill="#231F20" d="M14.5 19h6v2h-3.5v1.5h-2V21h-3.5c0-1 0-2 .5-2.8.2-.5.6-.9 1-1.4 1.1-1.4 2.3-2.7 3.5-4.1.5-.5.9-1 1.5-1.6h-5V9h3.5V7.5h2V9h3.5c0 1 0 2-.5 2.8-.2.5-.6.9-1 1.4-1.1 1.4-2.3 2.7-3.5 4.1-.5.5-.9 1-1.5 1.7z"/>
</svg>
